# xmcd CD database file
#
# Track frame offsets:
#	150
#	12835
#	22620
#	36082
#	52942
#	67747
#	81495
#	91967
#	100329
#	109077
#	118962
#	131167
#	139212
#	152420
#
# Disc length: 2156 seconds
#
# Revision: 3
# Processed by: cddbd v1.5.1PL0 Copyright (c) Steve Scherf et al.
# Submitted via: CDex 1.51
#
DISCID=ad086a0e
DTITLE=Willie Nelson - Willie Nelson-One Step Beyond
DYEAR=1995
DGENRE=Country
TTITLE0=I Just Don't Understand
TTITLE1=I Didn't Sleep A Wink
TTITLE2=Undo The Right
TTITLE3=I Let My Mind Wander
TTITLE4=And So Will You My Love
TTITLE5=Home Is Where You're Happy
TTITLE6=I Feel Sorry For Him
TTITLE7=Slow Down Old World
TTITLE8=Why Are You Picking On Me
TTITLE9=Broken Promises
TTITLE10=I Can't Find The Time
TTITLE11=Things To Remember
TTITLE12=You'll Always Have Someone
TTITLE13=One Step Beyond
EXTD=YEAR: 1995
EXTT0=
EXTT1=
EXTT2=
EXTT3=
EXTT4=
EXTT5=
EXTT6=
EXTT7=
EXTT8=
EXTT9=
EXTT10=
EXTT11=
EXTT12=
EXTT13=
PLAYORDER=
